<svg xmlns="http://www.w3.org/2000/svg" xmlns:xlink="http://www.w3.org/1999/xlink" contentStyleType="text/css" height="363px" preserveAspectRatio="none" style="width:346px;height:363px;background:#FFFFFF;" version="1.1" viewBox="0 0 346 363" width="346px" zoomAndPan="magnify"><defs><filter height="300%" id="fjfviikm1pbr" width="300%" x="-1" y="-1"><feGaussianBlur result="blurOut" stdDeviation="2.0"/><feColorMatrix in="blurOut" result="blurOut2" type="matrix" values="0 0 0 0 0 0 0 0 0 0 0 0 0 0 0 0 0 0 .4 0"/><feOffset dx="4.0" dy="4.0" in="blurOut2" result="blurOut3"/><feBlend in="SourceGraphic" in2="blurOut3" mode="normal"/></filter></defs><g><text fill="#000000" font-family="sans-serif" font-size="14" font-weight="bold" lengthAdjust="spacing" textLength="303.0029" x="20" y="32.9951">StudentSphere Application Flow Chart</text><ellipse cx="159.5015" cy="57.2969" fill="#000000" filter="url(#fjfviikm1pbr)" rx="10" ry="10" style="stroke:#000000;stroke-width:1.0;"/><polygon fill="#FEFECE" filter="url(#fjfviikm1pbr)" points="112.6284,141.2656,216.3745,141.2656,206.3745,158.25,216.3745,175.2344,112.6284,175.2344" style="stroke:#A80036;stroke-width:1.5;"/><text fill="#000000" font-family="sans-serif" font-size="12" lengthAdjust="spacing" textLength="73.7461" x="122.6284" y="162.4043">Input choice</text><rect fill="#FEFECE" filter="url(#fjfviikm1pbr)" height="33.9688" rx="12.5" ry="12.5" style="stroke:#A80036;stroke-width:1.5;" width="215.7852" x="51.6089" y="205.2266"/><text fill="#000000" font-family="sans-serif" font-size="12" lengthAdjust="spacing" textLength="195.7852" x="61.6089" y="226.3652">Process the chosen user request</text><rect fill="#FEFECE" filter="url(#fjfviikm1pbr)" height="33.9688" rx="12.5" ry="12.5" style="stroke:#A80036;stroke-width:1.5;" width="100.9941" x="109.0044" y="87.2969"/><text fill="#000000" font-family="sans-serif" font-size="12" lengthAdjust="spacing" textLength="80.9941" x="119.0044" y="108.4355">Display Menu</text><polygon fill="#FEFECE" filter="url(#fjfviikm1pbr)" points="118.0474,259.1953,200.9556,259.1953,212.9556,271.1953,200.9556,283.1953,118.0474,283.1953,106.0474,271.1953,118.0474,259.1953" style="stroke:#A80036;stroke-width:1.5;"/><text fill="#000000" font-family="sans-serif" font-size="11" lengthAdjust="spacing" textLength="82.9082" x="118.0474" y="275.0034">choice != Exit?</text><text fill="#000000" font-family="sans-serif" font-size="11" lengthAdjust="spacing" textLength="19.0083" x="212.9556" y="268.6011">yes</text><ellipse cx="159.5015" cy="335.5942" fill="none" filter="url(#fjfviikm1pbr)" rx="11" ry="11" style="stroke:#000000;stroke-width:1.0;"/><ellipse cx="159.5015" cy="335.5942" fill="#000000" rx="6" ry="6" style="stroke:#000000;stroke-width:1.0;"/><line style="stroke:#A80036;stroke-width:1.5;" x1="159.5015" x2="159.5015" y1="175.2344" y2="205.2266"/><polygon fill="#A80036" points="155.5015,195.2266,159.5015,205.2266,163.5015,195.2266,159.5015,199.2266" style="stroke:#A80036;stroke-width:1.0;"/><line style="stroke:#A80036;stroke-width:1.5;" x1="159.5015" x2="159.5015" y1="121.2656" y2="141.2656"/><polygon fill="#A80036" points="155.5015,131.2656,159.5015,141.2656,163.5015,131.2656,159.5015,135.2656" style="stroke:#A80036;stroke-width:1.0;"/><line style="stroke:#A80036;stroke-width:1.5;" x1="212.9556" x2="279.394" y1="271.1953" y2="271.1953"/><polygon fill="#A80036" points="275.394,195.2344,279.394,185.2344,283.394,195.2344,279.394,191.2344" style="stroke:#A80036;stroke-width:1.5;"/><line style="stroke:#A80036;stroke-width:1.5;" x1="279.394" x2="279.394" y1="104.2813" y2="271.1953"/><line style="stroke:#A80036;stroke-width:1.5;" x1="279.394" x2="209.9985" y1="104.2813" y2="104.2813"/><polygon fill="#A80036" points="219.9985,100.2813,209.9985,104.2813,219.9985,108.2813,215.9985,104.2813" style="stroke:#A80036;stroke-width:1.0;"/><line style="stroke:#A80036;stroke-width:1.5;" x1="159.5015" x2="159.5015" y1="239.1953" y2="259.1953"/><polygon fill="#A80036" points="155.5015,249.1953,159.5015,259.1953,163.5015,249.1953,159.5015,253.1953" style="stroke:#A80036;stroke-width:1.0;"/><line style="stroke:#A80036;stroke-width:1.5;" x1="159.5015" x2="159.5015" y1="67.2969" y2="87.2969"/><polygon fill="#A80036" points="155.5015,77.2969,159.5015,87.2969,163.5015,77.2969,159.5015,81.2969" style="stroke:#A80036;stroke-width:1.0;"/><line style="stroke:#A80036;stroke-width:1.5;" x1="159.5015" x2="159.5015" y1="283.1953" y2="324.5942"/><polygon fill="#A80036" points="155.5015,314.5942,159.5015,324.5942,163.5015,314.5942,159.5015,318.5942" style="stroke:#A80036;stroke-width:1.0;"/><text fill="#000000" font-family="sans-serif" font-size="11" lengthAdjust="spacing" textLength="13.7017" x="163.5015" y="304.5">no</text><!--SRC=[DOxD2i8m48JlUOhrLW- -G5ihuWzu48G-GOW3MIn9p6weVNjRYwTXc8-FaHS7ob5WZB8Ee5xB4q7xv951nvG6TbOv1heESQIJjrcD4Vr5He9LgiyiQR0JtH5AO-fRI4N9-SWE3RKjBxthJFt8qK64r6EP1O6A85F6kq1qOTEApFJVFdgUVrMhZZPxkdnO3rjYeMg2RCsk2x6PByNq1G00]--></g></svg>