<svg xmlns="http://www.w3.org/2000/svg" xmlns:xlink="http://www.w3.org/1999/xlink" contentStyleType="text/css" height="598px" preserveAspectRatio="none" style="width:346px;height:598px;background:#FFFFFF;" version="1.1" viewBox="0 0 346 598" width="346px" zoomAndPan="magnify"><defs/><g><!--class Student--><g id="elem_Student"><rect codeLine="1" fill="#F1F1F1" height="577.5" id="Student" rx="2.5" ry="2.5" style="stroke:#181818;stroke-width:0.5;" width="325.4277" x="7" y="7"/><ellipse cx="137.9082" cy="23" fill="#ADD1B2" rx="11" ry="11" style="stroke:#181818;stroke-width:1.0;"/><path d="M140.877,28.6406 Q140.2988,28.9375 139.6582,29.0781 Q139.0176,29.2344 138.3145,29.2344 Q135.8145,29.2344 134.4863,27.5938 Q133.1738,25.9375 133.1738,22.8125 Q133.1738,19.6875 134.4863,18.0313 Q135.8145,16.375 138.3145,16.375 Q139.0176,16.375 139.6582,16.5313 Q140.3145,16.6875 140.877,16.9844 L140.877,19.7031 Q140.252,19.125 139.6582,18.8594 Q139.0645,18.5781 138.4395,18.5781 Q137.0957,18.5781 136.4082,19.6563 Q135.7207,20.7188 135.7207,22.8125 Q135.7207,24.9063 136.4082,25.9844 Q137.0957,27.0469 138.4395,27.0469 Q139.0645,27.0469 139.6582,26.7813 Q140.252,26.5 140.877,25.9219 L140.877,28.6406 Z " fill="#000000"/><text fill="#000000" font-family="sans-serif" font-size="14" lengthAdjust="spacing" textLength="55.1113" x="158.4082" y="27.8467">Student</text><line style="stroke:#181818;stroke-width:0.5;" x1="8" x2="331.4277" y1="39" y2="39"/><rect fill="none" height="6" style="stroke:#C82930;stroke-width:1.0;" width="6" x="15" y="49.6484"/><text fill="#000000" font-family="sans-serif" font-size="14" lengthAdjust="spacing" textLength="113.2988" x="27" y="55.9951">string firstName</text><rect fill="none" height="6" style="stroke:#C82930;stroke-width:1.0;" width="6" x="15" y="65.9453"/><text fill="#000000" font-family="sans-serif" font-size="14" lengthAdjust="spacing" textLength="111.1934" x="27" y="72.292">string lastName</text><rect fill="none" height="6" style="stroke:#C82930;stroke-width:1.0;" width="6" x="15" y="82.2422"/><text fill="#000000" font-family="sans-serif" font-size="14" lengthAdjust="spacing" textLength="89.209" x="27" y="88.5889">short int age</text><rect fill="none" height="6" style="stroke:#C82930;stroke-width:1.0;" width="6" x="15" y="98.5391"/><text fill="#000000" font-family="sans-serif" font-size="14" lengthAdjust="spacing" textLength="164.0898" x="27" y="104.8857">struct Date dateOfBirth</text><rect fill="none" height="6" style="stroke:#C82930;stroke-width:1.0;" width="6" x="15" y="114.8359"/><text fill="#000000" font-family="sans-serif" font-size="14" lengthAdjust="spacing" textLength="99.9482" x="27" y="121.1826">string address</text><rect fill="none" height="6" style="stroke:#C82930;stroke-width:1.0;" width="6" x="15" y="131.1328"/><text fill="#000000" font-family="sans-serif" font-size="14" lengthAdjust="spacing" textLength="116.7988" x="27" y="137.4795">int registrationId</text><rect fill="none" height="6" style="stroke:#C82930;stroke-width:1.0;" width="6" x="15" y="147.4297"/><text fill="#000000" font-family="sans-serif" font-size="14" lengthAdjust="spacing" textLength="217.957" x="27" y="153.7764">PaymentStatus paymentStatus</text><ellipse cx="18" cy="187.0234" fill="#84BE84" rx="3" ry="3" style="stroke:#038048;stroke-width:1.0;"/><text fill="#000000" font-family="sans-serif" font-size="14" lengthAdjust="spacing" textLength="66.0352" x="27" y="190.3701">Student()</text><ellipse cx="18" cy="203.3203" fill="#84BE84" rx="3" ry="3" style="stroke:#038048;stroke-width:1.0;"/><text fill="#000000" font-family="sans-serif" font-size="14" lengthAdjust="spacing" textLength="299.4277" x="27" y="206.667">Student(string firstName, string lastName)</text><ellipse cx="18" cy="219.6172" fill="#84BE84" rx="3" ry="3" style="stroke:#038048;stroke-width:1.0;"/><text fill="#000000" font-family="sans-serif" font-size="14" lengthAdjust="spacing" textLength="155.2441" x="27" y="222.9639">Student(short int age)</text><ellipse cx="18" cy="235.9141" fill="#84BE84" rx="3" ry="3" style="stroke:#038048;stroke-width:1.0;"/><text fill="#000000" font-family="sans-serif" font-size="14" lengthAdjust="spacing" textLength="230.125" x="27" y="239.2607">Student(struct Date dateOfBirth)</text><ellipse cx="18" cy="252.2109" fill="#84BE84" rx="3" ry="3" style="stroke:#038048;stroke-width:1.0;"/><text fill="#000000" font-family="sans-serif" font-size="14" lengthAdjust="spacing" textLength="165.9834" x="27" y="255.5576">Student(string address)</text><ellipse cx="18" cy="268.5078" fill="#84BE84" rx="3" ry="3" style="stroke:#038048;stroke-width:1.0;"/><text fill="#000000" font-family="sans-serif" font-size="14" lengthAdjust="spacing" textLength="174.4326" x="27" y="271.8545">Student(const Student&amp;)</text><ellipse cx="18" cy="284.8047" fill="#84BE84" rx="3" ry="3" style="stroke:#038048;stroke-width:1.0;"/><text fill="#000000" font-family="sans-serif" font-size="14" lengthAdjust="spacing" textLength="185.3496" x="27" y="288.1514">Student(const Student&amp;&amp;)</text><line style="stroke:#181818;stroke-width:1.0;" x1="8" x2="126.0391" y1="169.2266" y2="169.2266"/><text fill="#000000" font-family="sans-serif" font-size="14" lengthAdjust="spacing" textLength="87.3496" x="126.0391" y="173.5732">constructors</text><line style="stroke:#181818;stroke-width:1.0;" x1="213.3887" x2="331.4277" y1="169.2266" y2="169.2266"/><ellipse cx="18" cy="321.3984" fill="#84BE84" rx="3" ry="3" style="stroke:#038048;stroke-width:1.0;"/><text fill="#000000" font-family="sans-serif" font-size="14" lengthAdjust="spacing" textLength="109.5732" x="27" y="324.7451">get_firstName()</text><ellipse cx="18" cy="337.6953" fill="#84BE84" rx="3" ry="3" style="stroke:#038048;stroke-width:1.0;"/><text fill="#000000" font-family="sans-serif" font-size="14" lengthAdjust="spacing" textLength="107.4678" x="27" y="341.042">get_lastName()</text><ellipse cx="18" cy="353.9922" fill="#84BE84" rx="3" ry="3" style="stroke:#038048;stroke-width:1.0;"/><text fill="#000000" font-family="sans-serif" font-size="14" lengthAdjust="spacing" textLength="66.9922" x="27" y="357.3389">get_age()</text><ellipse cx="18" cy="370.2891" fill="#84BE84" rx="3" ry="3" style="stroke:#038048;stroke-width:1.0;"/><text fill="#000000" font-family="sans-serif" font-size="14" lengthAdjust="spacing" textLength="116.5527" x="27" y="373.6357">get_ageOfBirth()</text><ellipse cx="18" cy="386.5859" fill="#84BE84" rx="3" ry="3" style="stroke:#038048;stroke-width:1.0;"/><text fill="#000000" font-family="sans-serif" font-size="14" lengthAdjust="spacing" textLength="96.2227" x="27" y="389.9326">get_address()</text><ellipse cx="18" cy="402.8828" fill="#84BE84" rx="3" ry="3" style="stroke:#038048;stroke-width:1.0;"/><text fill="#000000" font-family="sans-serif" font-size="14" lengthAdjust="spacing" textLength="135.0098" x="27" y="406.2295">get_registrationId()</text><line style="stroke:#181818;stroke-width:1.0;" x1="8" x2="144.6431" y1="303.6016" y2="303.6016"/><text fill="#000000" font-family="sans-serif" font-size="14" lengthAdjust="spacing" textLength="50.1416" x="144.6431" y="307.9482">getters</text><line style="stroke:#181818;stroke-width:1.0;" x1="194.7847" x2="331.4277" y1="303.6016" y2="303.6016"/><ellipse cx="18" cy="439.4766" fill="#84BE84" rx="3" ry="3" style="stroke:#038048;stroke-width:1.0;"/><text fill="#000000" font-family="sans-serif" font-size="14" lengthAdjust="spacing" textLength="107.9805" x="27" y="442.8232">set_firstName()</text><ellipse cx="18" cy="455.7734" fill="#84BE84" rx="3" ry="3" style="stroke:#038048;stroke-width:1.0;"/><text fill="#000000" font-family="sans-serif" font-size="14" lengthAdjust="spacing" textLength="105.875" x="27" y="459.1201">set_lastName()</text><ellipse cx="18" cy="472.0703" fill="#84BE84" rx="3" ry="3" style="stroke:#038048;stroke-width:1.0;"/><text fill="#000000" font-family="sans-serif" font-size="14" lengthAdjust="spacing" textLength="65.3994" x="27" y="475.417">set_age()</text><ellipse cx="18" cy="488.3672" fill="#84BE84" rx="3" ry="3" style="stroke:#038048;stroke-width:1.0;"/><text fill="#000000" font-family="sans-serif" font-size="14" lengthAdjust="spacing" textLength="114.96" x="27" y="491.7139">set_ageOfBirth()</text><ellipse cx="18" cy="504.6641" fill="#84BE84" rx="3" ry="3" style="stroke:#038048;stroke-width:1.0;"/><text fill="#000000" font-family="sans-serif" font-size="14" lengthAdjust="spacing" textLength="94.6299" x="27" y="508.0107">set_address()</text><ellipse cx="18" cy="520.9609" fill="#84BE84" rx="3" ry="3" style="stroke:#038048;stroke-width:1.0;"/><text fill="#000000" font-family="sans-serif" font-size="14" lengthAdjust="spacing" textLength="133.417" x="27" y="524.3076">set_registrationId()</text><line style="stroke:#181818;stroke-width:1.0;" x1="8" x2="145.4395" y1="421.6797" y2="421.6797"/><text fill="#000000" font-family="sans-serif" font-size="14" lengthAdjust="spacing" textLength="48.5488" x="145.4395" y="426.0264">setters</text><line style="stroke:#181818;stroke-width:1.0;" x1="193.9883" x2="331.4277" y1="421.6797" y2="421.6797"/><ellipse cx="18" cy="557.5547" fill="#84BE84" rx="3" ry="3" style="stroke:#038048;stroke-width:1.0;"/><text fill="#000000" font-family="sans-serif" font-size="14" lengthAdjust="spacing" textLength="191.2627" x="27" y="560.9014">operator=(const Student&amp;)</text><ellipse cx="18" cy="573.8516" fill="#84BE84" rx="3" ry="3" style="stroke:#038048;stroke-width:1.0;"/><text fill="#000000" font-family="sans-serif" font-size="14" lengthAdjust="spacing" textLength="202.9932" x="27" y="577.1982">operator&lt;&lt;(const Student&amp;)</text><line style="stroke:#181818;stroke-width:1.0;" x1="8" x2="103.166" y1="539.7578" y2="539.7578"/><text fill="#000000" font-family="sans-serif" font-size="14" lengthAdjust="spacing" textLength="133.0957" x="103.166" y="544.1045">operator overloads</text><line style="stroke:#181818;stroke-width:1.0;" x1="236.2617" x2="331.4277" y1="539.7578" y2="539.7578"/></g><!--SRC=[TP0nRiCm34Ltdu9JaQBL3TAbwDAb3P0318J5E08IAo3f0aNGkvTnB5kHdSKG_wVytrTzH17OQkUfLRXK3aGvj0ti0uj-uOacoLP7vH1P8TWLR8QDhbRuG2NmzldUlmVMmtGNlMSICU5wYQa9Pg26s7vw4pVuUpA0hQ9s0kTygfo3EhQtXCW2pbKlYNZrd9rByjSI_6uvRr3yPQdAGj3GANTwq3GzFNRCibeDgL9gPCDkHEzxNPM4FWf6cvy7kacwCOtp_Kkl-bZ9OsKMAsMiPB4oZvKYLXx4nZEP41dY3_4neXy8alwsy7h9Mwzdvjy_]--></g></svg>