<svg xmlns="http://www.w3.org/2000/svg" xmlns:xlink="http://www.w3.org/1999/xlink" contentStyleType="text/css" height="455px" preserveAspectRatio="none" style="width:470px;height:455px;background:#FFFFFF;" version="1.1" viewBox="0 0 470 455" width="470px" zoomAndPan="magnify"><defs/><g><!--class DataStructure--><g id="elem_DataStructure"><rect codeLine="1" fill="#F1F1F1" height="434.8281" id="DataStructure" rx="2.5" ry="2.5" style="stroke:#181818;stroke-width:0.5;" width="449.7939" x="7" y="7"/><ellipse cx="178.2163" cy="23" fill="#B4A7E5" rx="11" ry="11" style="stroke:#181818;stroke-width:1.0;"/><path d="M174.1382,18.7656 L174.1382,16.6094 L181.5288,16.6094 L181.5288,18.7656 L179.0601,18.7656 L179.0601,26.8438 L181.5288,26.8438 L181.5288,29 L174.1382,29 L174.1382,26.8438 L176.6069,26.8438 L176.6069,18.7656 L174.1382,18.7656 Z " fill="#000000"/><text fill="#000000" font-family="sans-serif" font-size="14" font-style="italic" lengthAdjust="spacing" textLength="98.8613" x="198.7163" y="27.8467">DataStructure</text><line style="stroke:#181818;stroke-width:0.5;" x1="8" x2="455.7939" y1="39" y2="39"/><rect fill="none" height="6" style="stroke:#C82930;stroke-width:1.0;" width="6" x="15" y="49.6484"/><text fill="#000000" font-family="sans-serif" font-size="14" lengthAdjust="spacing" textLength="182.9092" x="27" y="55.9951">string dataStructureName</text><rect fill="none" height="6" style="stroke:#C82930;stroke-width:1.0;" width="6" x="15" y="65.9453"/><text fill="#000000" font-family="sans-serif" font-size="14" lengthAdjust="spacing" textLength="260.7227" x="27" y="72.292">vector&lt;string&gt; supportedOperations</text><ellipse cx="18" cy="105.5391" fill="#84BE84" rx="3" ry="3" style="stroke:#038048;stroke-width:1.0;"/><text fill="#000000" font-family="sans-serif" font-size="14" lengthAdjust="spacing" textLength="109.7852" x="27" y="108.8857">DataStructure()</text><ellipse cx="18" cy="121.8359" fill="#84BE84" rx="3" ry="3" style="stroke:#038048;stroke-width:1.0;"/><text fill="#000000" font-family="sans-serif" font-size="14" lengthAdjust="spacing" textLength="292.6943" x="27" y="125.1826">DataStructure(string dataStructureName)</text><ellipse cx="18" cy="138.1328" fill="#84BE84" rx="3" ry="3" style="stroke:#038048;stroke-width:1.0;"/><text fill="#000000" font-family="sans-serif" font-size="14" lengthAdjust="spacing" textLength="423.7939" x="27" y="141.4795">DataStructure(const vector&lt;string&gt;&amp; supportedOperations)</text><ellipse cx="18" cy="154.4297" fill="#84BE84" rx="3" ry="3" style="stroke:#038048;stroke-width:1.0;"/><text fill="#000000" font-family="sans-serif" font-size="14" lengthAdjust="spacing" textLength="261.9326" x="27" y="157.7764">DataStructure(const DataStructure&amp;)</text><ellipse cx="18" cy="170.7266" fill="#84BE84" rx="3" ry="3" style="stroke:#038048;stroke-width:1.0;"/><text fill="#000000" font-family="sans-serif" font-size="14" lengthAdjust="spacing" textLength="272.8496" x="27" y="174.0732">DataStructure(const DataStructure&amp;&amp;)</text><line style="stroke:#181818;stroke-width:1.0;" x1="8" x2="188.2222" y1="87.7422" y2="87.7422"/><text fill="#000000" font-family="sans-serif" font-size="14" lengthAdjust="spacing" textLength="87.3496" x="188.2222" y="92.0889">constructors</text><line style="stroke:#181818;stroke-width:1.0;" x1="275.5718" x2="455.7939" y1="87.7422" y2="87.7422"/><ellipse cx="18" cy="207.3203" fill="#84BE84" rx="3" ry="3" style="stroke:#038048;stroke-width:1.0;"/><text fill="#000000" font-family="sans-serif" font-size="14" lengthAdjust="spacing" textLength="179.1836" x="27" y="210.667">get_dataStructureName()</text><ellipse cx="18" cy="223.6172" fill="#84BE84" rx="3" ry="3" style="stroke:#038048;stroke-width:1.0;"/><text fill="#000000" font-family="sans-serif" font-size="14" lengthAdjust="spacing" textLength="189.1299" x="27" y="226.9639">get_supportedOperations()</text><line style="stroke:#181818;stroke-width:1.0;" x1="8" x2="206.8262" y1="189.5234" y2="189.5234"/><text fill="#000000" font-family="sans-serif" font-size="14" lengthAdjust="spacing" textLength="50.1416" x="206.8262" y="193.8701">getters</text><line style="stroke:#181818;stroke-width:1.0;" x1="256.9678" x2="455.7939" y1="189.5234" y2="189.5234"/><ellipse cx="18" cy="260.2109" fill="#84BE84" rx="3" ry="3" style="stroke:#038048;stroke-width:1.0;"/><text fill="#000000" font-family="sans-serif" font-size="14" lengthAdjust="spacing" textLength="177.5908" x="27" y="263.5576">set_dataStructureName()</text><ellipse cx="18" cy="276.5078" fill="#84BE84" rx="3" ry="3" style="stroke:#038048;stroke-width:1.0;"/><text fill="#000000" font-family="sans-serif" font-size="14" lengthAdjust="spacing" textLength="187.5371" x="27" y="279.8545">set_supportedOperations()</text><line style="stroke:#181818;stroke-width:1.0;" x1="8" x2="207.6226" y1="242.4141" y2="242.4141"/><text fill="#000000" font-family="sans-serif" font-size="14" lengthAdjust="spacing" textLength="48.5488" x="207.6226" y="246.7607">setters</text><line style="stroke:#181818;stroke-width:1.0;" x1="256.1714" x2="455.7939" y1="242.4141" y2="242.4141"/><ellipse cx="18" cy="313.1016" fill="#84BE84" rx="3" ry="3" style="stroke:#038048;stroke-width:1.0;"/><text fill="#000000" font-family="sans-serif" font-size="14" lengthAdjust="spacing" textLength="235.0127" x="27" y="316.4482">operator=(const DataStructure&amp;)</text><ellipse cx="18" cy="329.3984" fill="#84BE84" rx="3" ry="3" style="stroke:#038048;stroke-width:1.0;"/><text fill="#000000" font-family="sans-serif" font-size="14" lengthAdjust="spacing" textLength="246.7432" x="27" y="332.7451">operator&lt;&lt;(const DataStructure&amp;)</text><line style="stroke:#181818;stroke-width:1.0;" x1="8" x2="165.3491" y1="295.3047" y2="295.3047"/><text fill="#000000" font-family="sans-serif" font-size="14" lengthAdjust="spacing" textLength="133.0957" x="165.3491" y="299.6514">operator overloads</text><line style="stroke:#181818;stroke-width:1.0;" x1="298.4448" x2="455.7939" y1="295.3047" y2="295.3047"/><ellipse cx="18" cy="365.9922" fill="#84BE84" rx="3" ry="3" style="stroke:#038048;stroke-width:1.0;"/><text fill="#000000" font-family="sans-serif" font-size="14" lengthAdjust="spacing" textLength="80.377" x="27" y="369.3389">insert() = 0</text><ellipse cx="18" cy="382.2891" fill="#84BE84" rx="3" ry="3" style="stroke:#038048;stroke-width:1.0;"/><text fill="#000000" font-family="sans-serif" font-size="14" lengthAdjust="spacing" textLength="87.2744" x="27" y="385.6357">search() = 0</text><ellipse cx="18" cy="398.5859" fill="#84BE84" rx="3" ry="3" style="stroke:#038048;stroke-width:1.0;"/><text fill="#000000" font-family="sans-serif" font-size="14" lengthAdjust="spacing" textLength="89.79" x="27" y="401.9326">update() = 0</text><ellipse cx="18" cy="414.8828" fill="#84BE84" rx="3" ry="3" style="stroke:#038048;stroke-width:1.0;"/><text fill="#000000" font-family="sans-serif" font-size="14" lengthAdjust="spacing" textLength="84.5674" x="27" y="418.2295">delete() = 0</text><ellipse cx="18" cy="431.1797" fill="#84BE84" rx="3" ry="3" style="stroke:#038048;stroke-width:1.0;"/><text fill="#000000" font-family="sans-serif" font-size="14" lengthAdjust="spacing" textLength="98.8477" x="27" y="434.5264">traverse() = 0</text><line style="stroke:#181818;stroke-width:1.0;" x1="8" x2="142.5034" y1="348.1953" y2="348.1953"/><text fill="#000000" font-family="sans-serif" font-size="14" lengthAdjust="spacing" textLength="178.7871" x="142.5034" y="352.542">data structure operations</text><line style="stroke:#181818;stroke-width:1.0;" x1="321.2905" x2="455.7939" y1="348.1953" y2="348.1953"/></g><!--SRC=[ZL9B2i903Dtt55b9HGOyG7NbMXSUG8Pfr88s9KdTY7StZhPKwuYhyfANznbQrOgyzm5XvTLlbTkWBIDSCmUYNDK7A8UBjJ-ZhIuObBXuCfOWRTCGAvQR1jbhHRLapa6mRpma5d0kcxsRvDFH96KvPaRjZnoJRq5Ifs-poNyiercj0wezsgkHWTqeRcpss7p9aqSD6Mf8KaD-QL34n40Nv1FvyYNNpHV9fXsZA18KKty40kb_2EhDdoPLBSYQJs41ynZKSpZsi6ti77jOuWa7KDbROka6jpi0]--></g></svg>